<?xml version="1.0" encoding="UTF-8" standalone="no"?>
<svg
   xmlns:dc="http://purl.org/dc/elements/1.1/"
   xmlns:cc="http://creativecommons.org/ns#"
   xmlns:rdf="http://www.w3.org/1999/02/22-rdf-syntax-ns#"
   xmlns:svg="http://www.w3.org/2000/svg"
   xmlns="http://www.w3.org/2000/svg"
   xmlns:sodipodi="http://sodipodi.sourceforge.net/DTD/sodipodi-0.dtd"
   xmlns:inkscape="http://www.inkscape.org/namespaces/inkscape"
   width="245.05379mm"
   height="165.61166mm"
   viewBox="0 0 245.05379 165.61166"
   version="1.1"
   id="svg8"
   inkscape:version="1.0.1 (c497b03c, 2020-09-10)"
   sodipodi:docname="trolley_damage.svg">
  <defs
     id="defs2" />
  <sodipodi:namedview
     id="base"
     pagecolor="#ffffff"
     bordercolor="#666666"
     borderopacity="1.0"
     inkscape:pageopacity="0.0"
     inkscape:pageshadow="2"
     inkscape:zoom="0.7"
     inkscape:cx="549.35386"
     inkscape:cy="352.76582"
     inkscape:document-units="mm"
     inkscape:current-layer="layer1"
     inkscape:document-rotation="0"
     showgrid="false"
     inkscape:snap-global="false"
     fit-margin-top="0"
     fit-margin-left="0"
     fit-margin-right="0"
     fit-margin-bottom="0"
     inkscape:window-width="1440"
     inkscape:window-height="847"
     inkscape:window-x="0"
     inkscape:window-y="25"
     inkscape:window-maximized="0" />
  <metadata
     id="metadata5">
    <rdf:RDF>
      <cc:Work
         rdf:about="">
        <dc:format>image/svg+xml</dc:format>
        <dc:type
           rdf:resource="http://purl.org/dc/dcmitype/StillImage" />
        <dc:title></dc:title>
      </cc:Work>
    </rdf:RDF>
  </metadata>
  <g
     inkscape:label="Layer 1"
     inkscape:groupmode="layer"
     id="layer1"
     transform="translate(11.853145,-23.120493)">
    <path
       style="fill:#999999;stroke:#000000;stroke-width:0.264583px;stroke-linecap:butt;stroke-linejoin:miter;stroke-opacity:1"
       d="m 154.9009,52.78573 55.05752,-28.731473 3.74178,-0.26727 -57.19568,30.735995 z"
       id="path921" />
    <path
       style="fill:#999999;stroke:#000000;stroke-width:0.264583px;stroke-linecap:butt;stroke-linejoin:miter;stroke-opacity:1"
       d="M 54.790252,52.251191 -0.26726951,23.519718 -4.0090428,23.252448 53.186636,53.988443 Z"
       id="path919" />
    <g
       id="g913"
       transform="matrix(-1,0,0,1,212.36069,0)">
      <path
         style="fill:#808080;stroke:#000000;stroke-width:0.264583px;stroke-linecap:butt;stroke-linejoin:miter;stroke-opacity:1"
         d="m 192.70133,114.52499 v -1.87088 h -4.87767 c 0,0 -0.46772,-0.40091 -0.46772,-0.735 0,-0.33408 0.53454,-0.53454 0.53454,-0.53454 l 6.949,0.0668 c 0,0 0.80181,1.1359 0.735,2.20498 -0.0668,1.06907 -2.87315,0.86862 -2.87315,0.86862 z"
         id="path909" />
      <rect
         style="fill:#808080;stroke:#000000;stroke-width:1;stroke-linecap:round;paint-order:fill markers stroke"
         id="rect911"
         width="8.1264877"
         height="35.907738"
         x="189.55507"
         y="114.33779" />
    </g>
    <g
       id="g907">
      <path
         style="fill:#808080;stroke:#000000;stroke-width:0.264583px;stroke-linecap:butt;stroke-linejoin:miter;stroke-opacity:1"
         d="m 192.70133,114.52499 v -1.87088 h -4.87767 c 0,0 -0.46772,-0.40091 -0.46772,-0.735 0,-0.33408 0.53454,-0.53454 0.53454,-0.53454 l 6.949,0.0668 c 0,0 0.80181,1.1359 0.735,2.20498 -0.0668,1.06907 -2.87315,0.86862 -2.87315,0.86862 z"
         id="path903" />
      <rect
         style="fill:#808080;stroke:#000000;stroke-width:1;stroke-linecap:round;paint-order:fill markers stroke"
         id="rect899"
         width="8.1264877"
         height="35.907738"
         x="189.55507"
         y="114.33779" />
    </g>
    <rect
       style="fill:#4d4d4d;stroke:#000000;stroke-width:0.59029;stroke-linecap:round;paint-order:fill markers stroke"
       id="rect845"
       width="5.9536295"
       height="72.844673"
       x="113.09202"
       y="81.406693" />
    <rect
       style="fill:#4d4d4d;stroke:#000000;stroke-width:0.59029;stroke-linecap:round;paint-order:fill markers stroke"
       id="rect847"
       width="5.9536295"
       height="72.844673"
       x="133.20029"
       y="81.406693" />
    <rect
       style="fill:#4d4d4d;stroke:#000000;stroke-width:0.59029;stroke-linecap:round;paint-order:fill markers stroke"
       id="rect849"
       width="5.9536295"
       height="72.844673"
       x="152.25003"
       y="81.406693" />
    <rect
       style="fill:#4d4d4d;stroke:#000000;stroke-width:0.59029;stroke-linecap:round;paint-order:fill markers stroke"
       id="rect851"
       width="5.9536295"
       height="72.844673"
       x="173.41641"
       y="81.406693" />
    <rect
       style="fill:#4d4d4d;stroke:#000000;stroke-width:0.59029;stroke-linecap:round;paint-order:fill markers stroke"
       id="rect857"
       width="5.9536295"
       height="72.844673"
       x="33.187805"
       y="81.406693" />
    <rect
       style="fill:#4d4d4d;stroke:#000000;stroke-width:0.59029;stroke-linecap:round;paint-order:fill markers stroke"
       id="rect859"
       width="5.9536295"
       height="72.844673"
       x="53.296158"
       y="81.406693" />
    <rect
       style="fill:#4d4d4d;stroke:#000000;stroke-width:0.59029;stroke-linecap:round;paint-order:fill markers stroke"
       id="rect861"
       width="5.9536295"
       height="72.844673"
       x="72.346176"
       y="81.406693" />
    <rect
       style="fill:#4d4d4d;stroke:#000000;stroke-width:0.59029;stroke-linecap:round;paint-order:fill markers stroke"
       id="rect843"
       width="5.9536295"
       height="72.844673"
       x="94.04203"
       y="81.406693" />
    <rect
       style="fill:#666666;stroke:#000000;stroke-width:1.11181;stroke-linecap:round;paint-order:fill markers stroke"
       id="rect837"
       width="170.94069"
       height="10.578972"
       x="22.773815"
       y="68.476898" />
    <rect
       style="fill:#000000;stroke:#000000;stroke-width:1;stroke-linecap:round;paint-order:fill markers stroke"
       id="rect833"
       width="194.03767"
       height="6.4144688"
       x="9.0871639"
       y="78.042702" />
    <rect
       style="fill:#000000;stroke:#000000;stroke-width:0.566484;stroke-linecap:round;paint-order:fill markers stroke"
       id="rect835"
       width="182.82918"
       height="2.1846237"
       x="15.706216"
       y="66.691681" />
    <rect
       style="fill:#000000;stroke:#000000;stroke-width:0.975077;stroke-linecap:round;paint-order:fill markers stroke"
       id="rect841"
       width="191.57314"
       height="6.1771808"
       x="10.319434"
       y="151.08138" />
    <g
       id="g872">
      <rect
         style="fill:#000000;stroke:#000000;stroke-width:1;stroke-linecap:round;paint-order:fill markers stroke"
         id="rect867"
         width="66.015572"
         height="14.967093"
         x="24.054256"
         y="161.16353" />
      <ellipse
         style="fill:#4d4d4d;stroke:#000000;stroke-width:1;stroke-linecap:round;paint-order:fill markers stroke"
         id="path863"
         cx="43.65625"
         cy="176.51489"
         rx="11.150297"
         ry="11.717261" />
      <ellipse
         style="fill:#4d4d4d;stroke:#000000;stroke-width:1;stroke-linecap:round;paint-order:fill markers stroke"
         id="ellipse865"
         cx="72.382439"
         cy="176.51489"
         rx="11.150297"
         ry="11.717261" />
    </g>
    <g
       id="g880"
       transform="translate(97.612424)">
      <rect
         style="fill:#000000;stroke:#000000;stroke-width:1;stroke-linecap:round;paint-order:fill markers stroke"
         id="rect874"
         width="66.015572"
         height="14.967093"
         x="24.054256"
         y="161.16353" />
      <ellipse
         style="fill:#4d4d4d;stroke:#000000;stroke-width:1;stroke-linecap:round;paint-order:fill markers stroke"
         id="ellipse876"
         cx="43.65625"
         cy="176.51489"
         rx="11.150297"
         ry="11.717261" />
      <ellipse
         style="fill:#4d4d4d;stroke:#000000;stroke-width:1;stroke-linecap:round;paint-order:fill markers stroke"
         id="ellipse878"
         cx="72.382439"
         cy="176.51489"
         rx="11.150297"
         ry="11.717261" />
    </g>
    <rect
       style="fill:#000000;stroke:#000000;stroke-width:1;stroke-linecap:round;paint-order:fill markers stroke"
       id="rect882"
       width="4.022027"
       height="38.19606"
       x="197.87053"
       y="119.0625" />
    <rect
       style="fill:#000000;stroke:#000000;stroke-width:1;stroke-linecap:round;paint-order:fill markers stroke"
       id="rect882-8"
       width="4.022027"
       height="38.19606"
       x="10.319434"
       y="119.0625" />
    <path
       style="fill:#000000;stroke:#000000;stroke-width:0.264583px;stroke-linecap:butt;stroke-linejoin:miter;stroke-opacity:1"
       d="m 53.294643,64.633927 22.67857,-0.377976 -0.377976,-4.535713 -20.032736,-7.937499 -3.401787,3.401784 7.937499,3.02381 z"
       id="path915" />
    <path
       style="fill:#000000;stroke:#000000;stroke-width:0.264583px;stroke-linecap:butt;stroke-linejoin:miter;stroke-opacity:1"
       d="m 156.38773,65.011903 -22.67857,-0.377976 0.37797,-4.535713 20.03274,-7.937499 3.40179,3.401784 -7.9375,3.02381 z"
       id="path917" />
    <rect
       style="fill:#999999;stroke:#000000;stroke-width:1;stroke-linecap:round;paint-order:fill markers stroke"
       id="rect923"
       width="7.2162771"
       height="9.3544331"
       x="1.3363477"
       y="134.5" />
    <rect
       style="fill:#999999;stroke:#000000;stroke-width:1;stroke-linecap:round;paint-order:fill markers stroke"
       id="rect923-7"
       width="7.2162771"
       height="9.3544331"
       x="203.79301"
       y="134.5" />
    <path
       style="fill:none;stroke:#a29e59;stroke-width:2;stroke-linecap:round;stroke-linejoin:round;stroke-miterlimit:4;stroke-dasharray:none;stroke-opacity:1"
       d="m 206.33207,131.49661 c -0.0859,-6.0786 6.78611,-12.40661 9.62171,-16.03618 2.79669,-3.57976 6.56732,-6.37647 9.08716,-10.15624 9.0981,-13.647153 9.60174,-31.473278 1.06908,-45.435817 -2.1196,-3.468433 -4.85428,-7.001115 -7.48355,-10.156242 -0.48395,-0.580737 -1.26554,-0.927473 -1.60362,-1.603616 -0.0797,-0.159369 0.126,-0.408549 0,-0.53454 -0.12599,-0.125992 -0.40854,0.125991 -0.53454,0 -0.80674,-0.806742 -1.47501,-1.7443 -2.13815,-2.672694 -0.92631,-1.296837 -1.1179,-3.052009 -2.13816,-4.276312 -0.41127,-0.493533 -1.24725,-0.534541 -1.60361,-1.069079 -1.27129,-1.906931 -2.6727,-9.325834 -2.6727,-11.759861"
       id="path940" />
    <path
       style="fill:none;stroke:#a29e59;stroke-width:2;stroke-linecap:round;stroke-linejoin:round;stroke-miterlimit:4;stroke-dasharray:none;stroke-opacity:1"
       d="M 4.2763125,132.56568 C 0.72882188,115.91977 -1.296651,102.48332 -6.4144686,87.129865 -6.7924449,85.995938 -7.5583681,85.025954 -8.0180856,83.922631 -10.965063,76.849887 -11.083305,69.857013 -10.690781,62.006529 c 0.282524,-5.650489 3.5115505,-9.161256 5.8799295,-13.898014 1.7447816,-3.489563 1.409432,-7.581699 2.1381564,-11.225321 0.1562738,-0.78137 0.875815,-1.365104 1.0690779,-2.138156 C -1.0934992,32.704566 0,29.761868 0,27.796029"
       id="path942" />
  </g>
</svg>
